<svg xmlns="http://www.w3.org/2000/svg" width="131" height="50"><g fill="#EC4899" fill-rule="evenodd"><path d="M17.568 20.592V9.36c0-6.408-3.744-8.64-7.848-8.64H0v47.952h6.264v-19.44H9.72c4.104 0 7.848-2.304 7.848-8.64Zm-6.192.432c0 1.8-.648 2.736-2.016 2.736H6.264V6.552H9.36c1.368 0 2.016.864 2.016 2.736v11.736ZM21.096 48.672h6.336V.72h-6.336zM47.016 48.672v-5.976h-8.712V.72H32.04v47.952zM68.04 48.672V24.984h-9v5.184h2.808v10.296c0 1.8-1.008 3.168-3.024 3.168-1.944 0-3.024-1.368-3.024-3.168V9.144c0-1.656 1.08-3.024 2.952-3.024 2.016 0 3.024 1.296 3.024 2.952v8.28h5.832V9.648C67.608 4.176 64.224 0 58.752 0c-5.472 0-9.288 4.248-9.288 9.648v30.096c0 6.048 3.528 9.648 8.28 9.648 2.592 0 4.824-1.152 5.904-3.384l1.008 2.664h3.384ZM90.792 48.888v-1.8c-.72-1.224-1.08-2.736-1.08-4.896V31.536c0-2.808-1.368-4.968-3.816-6.12 2.448-1.152 3.672-3.24 3.672-6.12V9.216c0-6.264-3.816-8.496-7.92-8.496h-9.72v47.952h6.336v-20.52h2.808c1.656 0 2.52 1.296 2.52 2.952v11.448c0 3.456.936 6.336 3.24 6.336h3.96Zm-7.488-29.16c0 2.016-.792 2.952-2.304 2.952h-2.736V6.552h3.024c1.368 0 2.016.864 2.016 2.736v10.44ZM93.888 48.672h6.336V.72h-6.336zM130.68 48.672V.72h-8.424l-3.312 24.264-1.08 9.576-1.08-9.576L113.4.72h-8.568v47.952h5.544V12.24l1.008 9.648 3.6 26.784h4.824l3.816-26.784 1.08-9.648v36.432z"/></g></svg>